<?xml version="1.0" standalone="no"?>
<!DOCTYPE svg PUBLIC "-//W3C//DTD SVG 20010904//EN"
 "http://www.w3.org/TR/2001/REC-SVG-20010904/DTD/svg10.dtd">
<svg version="1.0" xmlns="http://www.w3.org/2000/svg"
 width="720.000000pt" height="720.000000pt" viewBox="0 0 720.000000 720.000000"
 preserveAspectRatio="xMidYMid meet">

<g transform="translate(0.000000,720.000000) scale(0.100000,-0.100000)"
fill="#000000" stroke="none">
<path d="M0 3600 l0 -3600 3600 0 3600 0 0 3600 0 3600 -3600 0 -3600 0 0
-3600z m4061 2310 c144 -14 305 -38 424 -61 108 -22 398 -88 402 -93 1 -1 12
-99 23 -217 22 -235 57 -554 66 -610 l5 -36 -58 -12 c-32 -7 -66 -15 -75 -17
-13 -4 -19 3 -24 23 -3 15 -20 73 -36 128 -16 55 -30 108 -31 117 -1 9 -3 15
-5 13 -3 -2 -17 23 -33 56 -38 80 -108 187 -148 226 -21 19 -30 36 -26 44 5 8
4 10 -4 5 -6 -4 -34 13 -66 41 -95 85 -267 159 -450 195 -96 18 -485 18 -580
-1 -596 -117 -998 -513 -1154 -1136 -76 -303 -76 -706 0 -1022 24 -103 80
-263 125 -360 18 -41 34 -76 34 -78 0 -11 113 -188 159 -250 102 -136 242
-267 384 -355 l87 -55 0 -132 c0 -120 -2 -133 -17 -133 -29 0 -243 75 -334
117 -479 217 -811 582 -968 1063 -73 227 -96 402 -88 694 6 221 18 303 72 502
107 394 376 752 745 992 217 142 521 261 793 313 241 45 554 61 778 39z m-194
-730 c312 -42 473 -210 473 -495 0 -162 -44 -271 -154 -381 -82 -82 -174 -132
-300 -164 -106 -27 -171 -25 -297 8 l-106 28 -6 -345 c-4 -189 -7 -606 -7
-927 0 -490 2 -583 14 -587 43 -17 236 -29 375 -24 126 4 175 10 255 32 177
47 279 113 326 211 30 61 40 179 40 479 0 297 -11 462 -35 520 -45 108 -135
150 -375 175 -58 6 -124 13 -147 16 l-43 5 0 76 0 76 152 -6 c83 -4 405 -7
715 -7 l564 0 -3 -67 -3 -68 -80 -16 c-173 -35 -216 -56 -248 -127 -22 -46
-22 -58 -25 -532 -3 -446 1 -564 24 -711 l6 -37 -208 -50 c-503 -122 -869
-169 -1174 -152 -63 3 -118 4 -122 2 -11 -5 -10 -160 2 -221 19 -99 57 -126
198 -138 l72 -6 0 -34 0 -33 -372 2 -373 3 0 30 c0 29 1 30 65 38 88 11 131
33 155 82 20 39 20 63 23 1565 2 1082 0 1544 -8 1590 -17 97 -42 117 -172 135
-45 6 -48 8 -48 36 l0 29 384 0 c212 0 420 -5 463 -10z"/>
<path d="M3541 5101 c-13 -3 -34 -19 -45 -34 -19 -26 -21 -45 -25 -205 -1 -97
0 -272 4 -389 l7 -212 52 -12 c74 -18 210 -16 277 4 184 55 278 219 267 461
-10 200 -97 327 -259 377 -62 19 -225 25 -278 10z"/>
</g>
</svg>
